A modern-day take on the "Beauty and the Beast" tale where a New York teen is transformed into a hideous monster in order to find true love.

Director:
Daniel Barnz
Writers:
Daniel Barnz (screenplay), Alex Flinn (novel)
Stars:
Alex Pettyfer, Vanessa Hudgens and Mary-Kate Olsen 

Media info:

General
Complete name                    : E:\torrent2\Beastly 2011 BluRay 1080p.MKV. AVC DTS 5.1-ACB-Team\Beastly 2011 BluRay 1080p.MKV. AVC DTS 5.1-ACB-Team.mkv
Format                           : Matroska
File size                        : 10.3 GiB
Duration                         : 1h 26mn
Overall bit rate                 : 17.1 Mbps
Movie name                       : movie
Encoded date                     : UTC 2011-06-18 10:04:56
Writing application              : mkvmerge v3.2.0 ('Beginnings') built on Feb 12 2010 16:46:17
Writing library                  : libebml v0.7.9 + libmatroska v0.8.1

Video
ID                               : 1
Format                           : AVC
Format/Info                      : Advanced Video Codec
Format profile                   : High@L4.1
Format settings, CABAC           : Yes
Format settings, ReFrames        : 2 frames
Muxing mode                      : Container profile=Unknown@0.0
Codec ID                         : V_MPEG4/ISO/AVC
Duration                         : 1h 26mn
Bit rate mode                    : Variable
Bit rate                         : 15.7 Mbps
Maximum bit rate                 : 35.0 Mbps
Width                            : 1 920 pixels
Height                           : 1 080 pixels
Display aspect ratio             : 16:9
Frame rate                       : 23.976 fps
Color space                      : YUV
Chroma subsampling               : 4:2:0
Bit depth                        : 8 bits
Scan type                        : Progressive
Bits/(Pixel*Frame)               : 0.315
Stream size                      : 9.17 GiB (89%)
Writing library                  : x264 core 115 r1995 c1e60b9
Encoding settings                : cabac=1 / ref=1 / deblock=1:0:0 / analyse=0x3:0x3 / me=dia / subme=1 / psy=1 / psy_rd=1.00:0.00 / mixed_ref=0 / me_range=16 / chroma_me=1 / trellis=0 / 8x8dct=1 / cqm=0 / deadzone=21,11 / fast_pskip=1 / chroma_qp_offset=0 / threads=3 / sliced_threads=0 / slices=4 / nr=0 / decimate=1 / interlaced=0 / bluray_compat=1 / constrained_intra=0 / bframes=3 / b_pyramid=0 / b_adapt=1 / b_bias=0 / direct=1 / weightb=1 / open_gop=0 / weightp=1 / keyint=24 / keyint_min=1 / scenecut=40 / intra_refresh=0 / rc_lookahead=0 / rc=abr / mbtree=0 / bitrate=15681 / ratetol=1.0 / qcomp=0.60 / qpmin=0 / qpmax=69 / qpstep=4 / vbv_maxrate=35000 / vbv_bufsize=30000 / nal_hrd=vbr / ip_ratio=1.10 / pb_ratio=1.10 / aq=1:1.00

Audio
ID                               : 2
Format                           : DTS
Format/Info                      : Digital Theater Systems
Codec ID                         : A_DTS
Duration                         : 1h 26mn
Bit rate mode                    : Constant
Bit rate                         : 1 510 Kbps
Channel(s)                       : 6 channels
Channel positions                : Front: L C R, Side: L R, LFE
Sampling rate                    : 48.0 KHz
Bit depth                        : 24 bits
Stream size                      : 930 MiB (9%)
Language                         : English

Text #1
ID                               : 3
Format                           : VobSub
Muxing mode                      : zlib
Codec ID                         : S_VOBSUB
Codec ID/Info                    : The same subtitle format used on DVDs
Language                         : English

Text #2
ID                               : 4
Format                           : UTF-8
Codec ID                         : S_TEXT/UTF8
Codec ID/Info                    : UTF-8 Plain Text
Language                         : Dutch

Menu
00:00:00.000                     : en:00:00:00.000
00:06:44.695                     : en:00:06:44.695
00:11:53.587                     : en:00:11:53.587
00:14:35.875                     : en:00:14:35.875
00:19:46.184                     : en:00:19:46.184
00:26:22.580                     : en:00:26:22.580
00:31:30.305                     : en:00:31:30.305
00:34:50.630                     : en:00:34:50.630
00:39:48.260                     : en:00:39:48.260
00:44:08.562                     : en:00:44:08.562
00:50:34.489                     : en:00:50:34.489
00:56:10.241                     : en:00:56:10.241
01:00:13.901                     : en:01:00:13.901
01:05:54.283                     : en:01:05:54.283
01:11:07.388                     : en:01:11:07.388
01:18:02.677                     : en:01:18:02.677

